<svg xmlns="http://www.w3.org/2000/svg" width="512" height="512" viewBox="0 0 512 512">
  <title>OV Image Studio</title>
  <rect width="512" height="512" rx="112" fill="#0f172a" />
  <path d="M112 120h288c22.1 0 40 17.9 40 40v192c0 22.1-17.9 40-40 40H112c-22.1 0-40-17.9-40-40V160c0-22.1 17.9-40 40-40Z" fill="#f8fafc" />
  <path d="M112 376h288c13.3 0 24-10.7 24-24v-38.6l-70.9-70.9c-9.4-9.4-24.6-9.4-33.9 0L269.7 292l-24.9-24.9c-9.4-9.4-24.6-9.4-33.9 0L96 381.9c4.4 3.8 10 6.1 16 6.1Z" fill="#14b8a6" />
  <circle cx="364" cy="184" r="32" fill="#38bdf8" />
  <text x="256" y="244" text-anchor="middle" font-family="Inter, Arial, sans-serif" font-size="112" font-weight="800" fill="#0f172a" letter-spacing="0">OV</text>
</svg>
